# xmcd
#
# Track frame offsets:
#	150
#	13217
#	26349
#	36078
#	46787
#	57739
#	69744
#	82358
#	96382
#	106876
#	121868
#	132367
#
# Disc length: 1931 seconds
#
# Revision: 0
# Processed by: cddbd v1.5.2PL0 Copyright (c) Steve Scherf et al.
# Submitted via: audiograbber 1.83.01
#
DISCID=a807890c
DTITLE=Various Artist - The Best Of Country And West Volume 4
DYEAR=1972
DGENRE=Country
TTITLE0=Jim Reeves  - Distant Drums
TTITLE1=Dottie West - Rose Garden 
TTITLE2=Chet Atkins and Jerry Reed - All I Ever Need Is You
TTITLE3=Waylon Jennings - The Taker
TTITLE4=Connie Smith - Just For What I Am 
TTITLE5=Dickey Lee  - Never Ending Story Of Love 
TTITLE6=Bobby Bare - Four Strong Winds
TTITLE7=Jim Ed Brown - Moring
TTITLE8=Danny Davis And The Nashville Brass - Snowbird 
TTITLE9=Skeeter Davis - One Tin Soldier
TTITLE10=Jerry Reed  - A Thing Called Love
TTITLE11=Hank Snow  - I'm Movin' On 
EXTD=
EXTT0=
EXTT1=
EXTT2=
EXTT3=
EXTT4=
EXTT5=
EXTT6=
EXTT7=
EXTT8=
EXTT9=
EXTT10=
EXTT11=
PLAYORDER=
